Coordinates
version=1
nRows=5
nColumns=40
inDegrees=yes

Units are S.I. units (second, meters, Newtons, ...)
Angles are in degrees.

endheader
time	pelvis_tilt	pelvis_list	pelvis_rotation	pelvis_tx	pelvis_ty	pelvis_tz	hip_flexion_r	hip_adduction_r	hip_rotation_r	knee_angle_r	knee_angle_r_beta	ankle_angle_r	subtalar_angle_r	mtp_angle_r	hip_flexion_l	hip_adduction_l	hip_rotation_l	knee_angle_l	knee_angle_l_beta	ankle_angle_l	subtalar_angle_l	mtp_angle_l	lumbar_extension	lumbar_bending	lumbar_rotation	arm_flex_r	arm_add_r	arm_rot_r	elbow_flex_r	pro_sup_r	wrist_flex_r	wrist_dev_r	arm_flex_l	arm_add_l	arm_rot_l	elbow_flex_l	pro_sup_l	wrist_flex_l	wrist_dev_l
     15.75000000	     -1.62503746	     12.19310474	     76.94980976	      0.55078826	      0.97554913	     -1.06827078	     16.60045930	     -1.41331828	     12.24102233	      7.50869920	      0.13105152	      7.68783534	      0.00000000	      0.00000000	    -29.84738042	      8.94119919	    -15.73866082	      3.47565881	      0.06066169	     16.55690908	      0.00000000	      0.00000000	    -27.96458308	     -5.98627118	      2.60017404	      4.66517407	    -10.21893653	      6.86357546	    140.46436050	     87.54606374	      0.00000000	      0.00000000	      1.99383983	    -13.43800682	      7.34140123	    146.74726322	      1.19715091	      0.00000000	      0.00000000
     15.76000000	     -1.74881907	     12.05342442	     76.93911537	      0.55254099	      0.97315047	     -1.06927438	     17.34693487	     -1.24138007	     11.41770656	      9.33570272	      0.16293875	      7.43780089	      0.00000000	      0.00000000	    -29.85336610	      8.86527233	    -15.90275108	      4.80175435	      0.08380642	     16.64023189	      0.00000000	      0.00000000	    -27.60916494	     -6.06137836	      2.82585372	      4.56280668	    -10.10210634	      6.77911876	    140.49443045	     87.42356319	      0.00000000	      0.00000000	      1.75070232	    -12.97550979	      7.22337910	    146.66033436	      1.18146035	      0.00000000	      0.00000000
     15.77000000	     -1.81939104	     11.98922502	     77.13109486	      0.55411426	      0.97101545	     -1.07081520	     17.77082318	     -1.15479603	     10.51614968	     11.15380968	      0.19467070	      6.97434581	      0.00000000	      0.00000000	    -29.85977595	      8.59216571	    -16.01899269	      6.36442794	      0.11108022	     16.61311399	      0.00000000	      0.00000000	    -27.28042108	     -5.99585869	      2.89320991	      4.40616593	     -9.97631406	      6.66768419	    140.50015545	     87.54106897	      0.00000000	      0.00000000	      1.41859067	    -12.47929448	      7.03506983	    146.60098218	      1.20202948	      0.00000000	      0.00000000
     15.78000000	     -1.99974534	     11.95304507	     77.30311232	      0.55562982	      0.96885253	     -1.07272028	     18.23067621	     -1.21896506	      9.76672438	     13.24419205	      0.23115476	      6.22729078	      0.00000000	      0.00000000	    -29.86168751	      8.44911478	    -15.95362352	      7.95418172	      0.13882666	     16.41174960	      0.00000000	      0.00000000	    -26.88995848	     -6.02895705	      2.94854966	      4.23931326	     -9.86700291	      6.52048317	    140.51151085	     87.57650328	      0.00000000	      0.00000000	      0.95311137	    -11.95477786	      6.88103477	    146.53174257	      1.20357894	      0.00000000	      0.00000000
     15.79000000	     -2.16574925	     12.00128003	     77.38353982	      0.55766220	      0.96711306	     -1.07444883	     18.52916065	     -1.23288647	      9.61442350	     15.12222843	      0.26393268	      5.37861119	      0.00000000	      0.00000000	    -29.86342483	      8.29990783	    -15.79574592	      9.66860948	      0.16874907	     15.98936674	      0.00000000	      0.00000000	    -26.59725282	     -6.14087658	      3.10026024	      4.08635921	     -9.72395015	      6.36553922	    140.49472744	     87.59553499	      0.00000000	      0.00000000	      0.57580100	    -11.47609744	      6.67057340	    146.45634983	      1.20625334	      0.00000000	      0.00000000
